<?xml version="1.0" standalone="no"?>
<!DOCTYPE svg PUBLIC "-//W3C//DTD SVG 20010904//EN"
 "http://www.w3.org/TR/2001/REC-SVG-20010904/DTD/svg10.dtd">
<svg version="1.0" xmlns="http://www.w3.org/2000/svg"
 width="500.000000pt" height="500.000000pt" viewBox="0 0 500.000000 500.000000"
 preserveAspectRatio="xMidYMid meet">

<g transform="translate(0.000000,500.000000) scale(0.100000,-0.100000)"
fill="#000000" stroke="none">
<path d="M1350 3479 l0 -761 30 -326 c17 -180 37 -369 46 -420 25 -146 79
-294 161 -437 55 -94 91 -142 193 -250 41 -45 96 -111 122 -148 59 -83 94
-106 151 -100 33 4 58 -3 118 -31 42 -20 102 -43 134 -53 39 -12 63 -27 77
-46 l20 -29 -30 -31 c-16 -18 -37 -46 -45 -63 -14 -27 -57 -240 -57 -281 0
-23 137 56 197 113 l53 50 45 -75 c24 -42 47 -84 50 -94 4 -9 11 -17 16 -17 5
0 12 8 15 17 3 10 16 43 29 73 32 73 48 148 40 187 -3 18 -22 56 -41 85 -48
70 -41 82 66 117 47 16 112 41 145 56 44 20 74 27 111 26 64 -2 94 21 154 115
23 37 67 92 99 123 103 101 171 191 171 227 0 18 24 82 54 145 57 121 100 267
116 395 5 44 21 204 35 356 24 267 25 303 25 1057 l0 781 -1150 0 -1150 0 0
-761z m140 596 l0 -45 40 0 c22 0 40 -5 40 -11 0 -6 -19 -9 -47 -7 l-48 3 -3
53 c-2 31 1 52 7 52 6 0 11 -20 11 -45z m230 35 c0 -5 -9 -10 -20 -10 -16 0
-20 -7 -20 -35 0 -28 4 -35 20 -35 11 0 20 -4 20 -10 0 -5 -25 -10 -55 -10
-30 0 -55 5 -55 10 0 6 12 10 26 10 23 0 25 3 22 33 -2 24 -8 33 -26 35 -12 2
-20 8 -17 13 8 12 105 12 105 -1z m140 -45 c0 -30 -3 -55 -7 -55 -4 0 -22 14
-40 32 l-33 32 0 -32 c0 -18 -4 -32 -10 -32 -5 0 -10 23 -10 50 0 28 3 50 7
50 4 0 22 -14 40 -32 l33 -32 0 37 c0 20 5 37 10 37 6 0 10 -25 10 -55z m60
29 c0 -23 3 -25 33 -22 24 2 33 8 35 26 2 12 8 20 13 17 12 -8 12 -105 -1
-105 -5 0 -10 9 -10 20 0 16 -7 20 -35 20 -28 0 -35 -4 -35 -20 0 -11 -4 -20
-10 -20 -5 0 -10 25 -10 55 0 30 5 55 10 55 6 0 10 -12 10 -26z m214 20 c12
-4 16 -20 16 -55 0 -27 -4 -49 -10 -49 -5 0 -10 9 -10 20 0 16 -7 20 -30 20
-23 0 -30 -4 -30 -20 0 -11 -4 -20 -10 -20 -11 0 -14 93 -3 103 8 9 56 9 77 1z
m246 -3 c0 -6 -19 -11 -42 -13 -24 -2 -43 -7 -43 -13 0 -5 19 -11 43 -13 56
-4 54 -22 -3 -22 -25 0 -45 -4 -45 -10 0 -5 20 -10 45 -10 25 0 45 -4 45 -10
0 -5 -22 -10 -49 -10 -35 0 -51 4 -55 16 -10 26 -7 69 6 82 14 14 98 16 98 3z
m140 -1 c0 -5 -18 -10 -40 -10 -29 0 -40 -4 -40 -15 0 -11 11 -15 41 -15 38 0
40 -1 37 -27 -3 -26 -7 -28 -50 -31 -29 -2 -48 1 -48 7 0 6 18 11 40 11 51 0
53 18 3 22 -31 2 -39 7 -41 27 -2 13 2 28 10 32 18 12 88 11 88 -1z m141 -6
c20 -24 -1 -48 -45 -52 -28 -3 -36 -8 -36 -23 0 -10 -4 -19 -10 -19 -5 0 -10
25 -10 55 l0 55 44 0 c28 0 48 -6 57 -16z m137 7 c9 -5 12 -24 10 -52 l-3 -44
-47 -3 -48 -3 0 49 c0 27 3 52 7 55 9 10 65 8 81 -2z m156 -14 c9 -15 7 -22
-13 -38 l-24 -20 21 -6 c12 -3 22 -9 22 -14 0 -17 -37 -9 -55 11 -10 11 -22
20 -27 20 -4 0 -8 -9 -8 -20 0 -11 -4 -20 -10 -20 -5 0 -10 25 -10 56 l0 55
46 -3 c32 -2 50 -9 58 -21z m146 13 c0 -5 -9 -10 -20 -10 -17 0 -20 -7 -20
-45 0 -57 -18 -59 -22 -2 -2 35 -7 43 -26 45 -12 2 -20 8 -17 13 8 12 105 12
105 -1z m140 0 c0 -5 -9 -10 -20 -10 -16 0 -20 -7 -20 -35 0 -28 4 -35 20 -35
11 0 20 -4 20 -10 0 -5 -22 -10 -50 -10 -27 0 -50 5 -50 10 0 6 9 10 20 10 16
0 20 7 20 35 0 28 -4 35 -20 35 -11 0 -20 5 -20 10 0 6 23 10 50 10 28 0 50
-4 50 -10z m60 -17 c0 -14 7 -35 17 -45 15 -17 17 -17 35 -2 10 10 18 31 18
48 0 21 3 27 11 19 18 -18 6 -65 -23 -86 l-28 -21 -25 24 c-25 24 -36 90 -15
90 6 0 10 -12 10 -27z m214 21 c12 -4 16 -20 16 -55 0 -27 -4 -49 -10 -49 -5
0 -10 9 -10 20 0 16 -7 20 -30 20 -23 0 -30 -4 -30 -20 0 -11 -4 -20 -10 -20
-11 0 -14 93 -3 103 8 9 56 9 77 1z m-1734 -314 l0 -110 25 0 c24 0 24 1 27
108 l3 107 80 0 80 0 3 -102 c3 -114 -12 -168 -50 -182 l-23 -8 24 -8 c37 -11
51 -62 51 -180 l0 -105 -85 0 -85 0 0 105 0 105 -25 0 -25 0 0 -105 0 -105
-80 0 -80 0 0 295 0 295 80 0 80 0 0 -110z m440 -105 l0 -215 30 0 30 0 0 215
0 215 80 0 80 0 0 -261 c0 -160 -4 -268 -10 -280 -7 -12 -21 -19 -39 -19 -15
0 -50 -7 -77 -15 -27 -8 -81 -15 -121 -15 -62 0 -76 3 -100 24 l-28 24 -3 258
c-2 141 -1 263 2 271 4 9 27 13 81 13 l75 0 0 -215z m619 200 c16 -8 31 -22
35 -30 3 -9 6 -136 6 -281 l0 -264 -80 0 -80 0 0 55 c0 52 -1 55 -25 55 -24 0
-25 -3 -25 -56 0 -54 -1 -56 -22 -50 -13 3 -49 11 -80 17 l-58 12 0 251 c1
261 2 269 45 294 31 18 249 16 284 -3z m324 -92 l52 -108 3 108 3 107 79 0 80
0 0 -295 0 -295 -80 0 -80 0 -54 108 -55 107 0 -107 -1 -108 -80 0 -80 0 0
295 0 295 81 0 80 0 52 -107z m-833 -695 c-73 -182 -80 -213 -80 -346 0 -60
-3 -129 -6 -153 l-6 -44 -75 37 c-76 39 -127 47 -164 27 -19 -10 -20 -8 -13
43 10 86 42 269 47 274 2 3 32 -9 65 -26 32 -16 66 -30 73 -30 7 0 -15 28 -49
63 l-62 62 34 50 c67 100 187 185 262 185 l32 0 -58 -142z m863 -263 c86 -32
156 -60 154 -62 -8 -8 -262 -41 -268 -35 -7 7 -69 150 -69 159 0 3 6 3 13 0 6
-2 83 -30 170 -62z m-1258 -96 c-22 -208 -36 -302 -48 -318 -20 -24 -103 -5
-216 49 -59 27 -116 50 -128 50 -51 0 -68 -60 -34 -117 41 -67 233 -206 336
-243 57 -21 61 -24 90 -83 42 -90 55 -155 37 -191 -7 -16 -12 -44 -10 -63 l4
-34 -59 7 c-53 6 -59 5 -63 -13 -4 -14 -28 -29 -77 -48 -40 -15 -77 -32 -83
-37 -6 -4 -19 -34 -28 -66 -25 -90 -28 -90 -74 2 -50 101 -85 204 -106 311
-13 68 -79 736 -73 740 7 5 542 201 545 200 1 -1 -5 -67 -13 -146z m1665 -69
c0 -64 -62 -679 -75 -739 -20 -96 -58 -208 -96 -284 l-32 -62 -21 59 -21 59
-75 29 c-41 16 -77 34 -78 39 -10 28 -32 37 -69 28 -57 -13 -59 -12 -55 25 2
18 -3 46 -11 61 -18 36 -6 99 35 178 23 46 29 67 25 95 l-6 37 87 53 c117 72
244 176 291 239 23 31 49 84 63 128 22 73 38 95 38 55z m-265 -61 c-212 -216
-488 -376 -742 -430 -84 -18 -119 -20 -248 -15 -223 8 -407 52 -551 132 -63
35 -175 131 -139 119 168 -55 480 -130 612 -148 104 -13 156 -4 326 60 131 49
476 196 672 286 66 31 122 56 125 56 2 1 -22 -26 -55 -60z m-257 -465 c2 -12
-16 -49 -42 -87 -24 -37 -40 -67 -35 -67 5 0 9 -14 9 -32 0 -24 -10 -40 -42
-71 l-43 -40 40 23 40 24 -20 -24 -20 -23 22 12 c33 17 38 13 17 -11 -10 -13
-12 -17 -4 -10 34 30 30 8 -5 -28 -44 -45 -37 -55 9 -12 29 26 29 26 13 2 -10
-14 -25 -38 -35 -54 -28 -48 -71 -94 -110 -118 l-36 -22 35 -9 c19 -5 40 -14
47 -20 10 -8 20 -2 43 26 43 52 61 54 135 16 l64 -32 -20 -22 c-11 -12 -17
-24 -14 -28 3 -3 -8 -23 -25 -44 -26 -33 -63 -104 -92 -180 -18 -47 1 -20 41
57 43 81 106 162 143 181 16 9 23 8 34 -7 17 -23 16 -56 -2 -129 -31 -119
-137 -306 -189 -335 -46 -24 -61 -11 -66 60 -5 64 -5 64 -13 25 -13 -64 -19
-70 -58 -50 -71 37 -91 56 -86 83 4 21 -4 34 -42 68 l-46 42 -27 -19 c-44 -32
-107 -49 -179 -49 -71 0 -155 24 -188 54 -16 14 -20 13 -51 -19 -19 -19 -38
-35 -42 -35 -15 0 -8 33 9 45 16 12 16 18 5 62 -7 26 -30 85 -52 130 -33 66
-44 80 -59 76 -39 -10 -32 18 8 35 37 15 54 32 32 32 -31 0 -174 170 -157 187
3 3 1 12 -5 19 -13 16 -4 50 16 58 9 3 12 0 9 -8 -3 -8 -1 -17 5 -21 7 -4 8 1
4 12 -6 16 -5 17 12 3 13 -11 11 -4 -8 25 -35 54 -45 95 -22 95 14 0 12 5 -9
31 -31 36 -60 89 -53 96 4 4 155 -18 318 -46 25 -4 117 -7 205 -6 174 1 290
21 452 75 100 33 126 34 130 4z m-1090 -415 c32 -12 27 -24 -17 -41 l-38 -15
-27 33 c-14 18 -26 35 -26 39 0 6 76 -5 108 -16z m1165 9 c5 -14 -19 -68 -31
-68 -4 0 -29 8 -55 18 -55 21 -50 35 19 51 55 13 62 13 67 -1z m-1258 -48 c10
-11 16 -22 14 -23 -2 -2 -30 -19 -63 -37 l-58 -33 -31 31 c-17 17 -29 33 -26
35 13 11 107 46 125 46 11 1 29 -8 39 -19z m1289 -2 c-6 -22 -6 -22 13 -6 18
17 22 17 68 -1 44 -17 51 -23 68 -70 l20 -52 -31 -32 -32 -32 0 26 c0 37 -31
73 -95 109 l-55 31 18 24 c22 31 35 32 26 3z m-1129 -84 c22 -25 57 -73 78
-107 22 -35 36 -51 33 -37 -3 14 8 -3 25 -37 16 -34 32 -79 35 -100 4 -38 4
-38 -16 12 -22 55 -22 63 1 -88 6 -37 9 -74 6 -81 -3 -7 -37 -29 -76 -50 l-71
-37 0 26 c0 15 -4 24 -10 20 -5 -3 -10 -15 -10 -25 0 -50 -46 -35 -98 33 -76
98 -140 248 -149 349 -5 48 -3 59 11 64 39 15 147 -124 204 -261 19 -46 30
-65 26 -45 -16 85 -94 230 -155 289 -27 26 -37 41 -29 46 6 4 17 2 23 -4 9 -9
7 -10 -8 -5 -21 8 -21 6 9 -16 11 -8 17 -10 13 -3 -4 6 -3 15 3 18 8 5 7 12
-2 23 -10 12 -10 14 0 8 6 -4 12 -3 12 2 0 8 83 51 100 52 3 0 23 -21 45 -46z
m-305 5 c27 -21 28 -23 13 -45 -11 -18 -14 -41 -11 -84 2 -33 1 -57 -3 -53 -4
5 -23 28 -42 52 -38 48 -38 40 -2 139 6 16 11 15 45 -9z m1425 -39 c-3 -5 -16
-15 -28 -21 -21 -10 -21 -9 2 10 25 23 36 27 26 11z m195 -71 c0 -17 -93 -149
-104 -149 -2 0 4 28 12 63 12 51 21 67 46 84 40 28 46 28 46 2z m-1596 -136
c7 -20 -64 55 -97 102 -11 17 4 4 35 -27 31 -32 58 -65 62 -75z m987 -186 c3
-20 16 -44 29 -55 l23 -19 -32 -22 c-44 -32 -32 -37 21 -11 59 30 35 8 -32
-29 -73 -40 -36 -41 49 -1 35 17 66 28 69 25 3 -3 3 -6 1 -8 -13 -10 -132 -58
-176 -71 -49 -14 -53 -14 -53 1 0 9 8 25 18 36 16 19 16 19 -5 13 -28 -9 -30
5 -3 21 10 7 24 22 31 34 12 24 8 22 -44 -14 -20 -14 -32 -16 -39 -9 -8 8 4
34 42 92 50 76 54 80 74 67 12 -8 23 -30 27 -50z m-341 -87 c-1 -3 -12 -18
-26 -34 l-25 -28 -52 20 c-29 11 -61 23 -72 27 l-20 7 20 -17 c11 -9 41 -28
68 -41 52 -27 64 -50 20 -39 -47 11 -183 66 -183 73 0 4 20 18 44 30 62 33 86
58 86 89 0 25 2 25 27 -15 27 -41 48 -57 37 -27 -4 8 -1 15 5 15 7 0 7 8 1 26
-17 45 -11 40 30 -21 22 -33 40 -62 40 -65z m64 -94 c-8 -52 11 -71 19 -20 7
45 23 64 52 64 32 0 48 -24 49 -73 l1 -42 -95 0 -95 0 2 43 c2 51 16 72 49 72
22 0 23 -3 18 -44z m83 -198 c-2 52 1 62 15 62 18 0 75 -80 85 -120 7 -25 -21
-148 -36 -163 -5 -5 -29 28 -55 76 -42 76 -46 90 -45 148 l1 64 19 -65 18 -65
-2 63z m-117 23 c-19 -36 -10 -46 11 -13 12 17 22 32 23 32 10 0 2 -139 -9
-161 -21 -40 -127 -121 -141 -107 -8 9 26 170 41 191 l16 22 -7 -27 c-10 -42
1 -34 35 27 17 30 34 55 36 55 3 0 1 -9 -5 -19z"/>
<path d="M2070 4085 c0 -10 10 -15 30 -15 20 0 30 5 30 15 0 10 -10 15 -30 15
-20 0 -30 -5 -30 -15z"/>
<path d="M2580 4085 c0 -12 8 -16 33 -13 17 2 32 8 32 13 0 6 -15 11 -32 13
-25 3 -33 -1 -33 -13z"/>
<path d="M2730 4065 c0 -32 2 -35 30 -35 28 0 30 3 30 35 0 32 -2 35 -30 35
-28 0 -30 -3 -30 -35z"/>
<path d="M2870 4085 c0 -12 8 -16 33 -13 17 2 32 8 32 13 0 6 -15 11 -32 13
-25 3 -33 -1 -33 -13z"/>
<path d="M3450 4085 c0 -10 10 -15 30 -15 20 0 30 5 30 15 0 10 -10 15 -30 15
-20 0 -30 -5 -30 -15z"/>
<path d="M2670 3670 c0 -79 0 -80 25 -80 25 0 25 1 25 80 0 79 0 80 -25 80
-25 0 -25 -1 -25 -80z"/>
<path d="M2641 2035 c-34 -25 -74 -63 -89 -85 -15 -21 -29 -39 -32 -39 -3 0
-17 17 -32 39 -27 40 -134 127 -144 117 -3 -3 9 -33 26 -67 l31 -61 -43 25
c-44 26 -198 79 -261 91 l-36 7 12 -28 c49 -113 61 -128 131 -164 67 -34 72
-35 165 -32 176 6 206 5 277 -3 131 -14 246 39 290 135 14 30 30 63 36 74 9
17 7 18 -27 12 -65 -13 -219 -66 -263 -92 l-43 -25 36 70 c19 39 33 71 31 71
-2 0 -31 -20 -65 -45z m-335 -103 c12 -7 12 -11 -2 -30 -20 -30 -68 -30 -88 0
-29 40 -21 51 30 44 25 -3 52 -9 60 -14z m534 5 c0 -7 -7 -23 -16 -35 -20 -30
-70 -27 -91 5 -14 21 -13 22 19 32 49 14 88 13 88 -2z"/>
<path d="M2289 1811 c-54 -8 -77 -24 -94 -66 -29 -70 -29 -70 27 -116 37 -30
44 -34 26 -13 -33 36 -37 55 -6 28 l22 -19 -17 27 c-18 28 -13 63 7 51 6 -4 4
2 -4 12 -14 17 -13 18 4 12 16 -6 17 -5 6 8 -17 21 -8 28 68 55 34 13 62 24
62 26 0 5 -44 3 -101 -5z"/>
<path d="M2689 1800 c24 -11 54 -23 68 -26 15 -4 22 -12 19 -20 -3 -8 -1 -14
5 -14 6 0 7 -4 4 -10 -20 -32 -12 -56 18 -51 13 2 8 -12 -13 -34 -11 -12 -23
-32 -25 -45 l-4 -23 24 23 c13 13 22 26 20 31 -3 4 0 11 6 15 8 4 9 3 5 -4
-13 -21 10 -13 33 12 22 23 22 23 4 71 -24 64 -52 82 -138 89 l-70 6 44 -20z"/>
<path d="M2445 1641 c-191 -86 -129 -361 81 -361 69 0 133 41 164 104 47 98 9
203 -90 254 -53 27 -101 28 -155 3z m157 -53 c30 -21 53 -56 44 -66 -3 -3 -6
0 -6 6 0 6 -14 24 -31 41 -57 57 -155 37 -198 -39 -12 -21 -21 -46 -21 -56 1
-11 7 -1 15 21 31 89 129 124 194 70 16 -14 33 -35 36 -46 4 -10 11 -17 16
-14 15 10 10 -63 -6 -95 -64 -124 -249 -91 -263 48 -12 126 118 203 220 130z"/>
<path d="M2467 1549 c-25 -15 -47 -70 -40 -100 27 -111 183 -87 183 27 0 38
-51 84 -92 84 -18 0 -41 -5 -51 -11z"/>
<path d="M2201 1515 c17 -31 42 -88 54 -128 18 -55 25 -67 31 -53 16 42 -62
227 -99 234 -15 3 -13 -5 14 -53z"/>
<path d="M2832 1558 c-41 -52 -90 -194 -77 -225 5 -13 11 -4 21 34 7 29 29 84
49 122 19 39 35 73 35 76 0 10 -18 5 -28 -7z"/>
<path d="M2872 1548 c-37 -47 -100 -217 -87 -238 11 -17 23 -2 30 38 3 21 26
77 50 125 28 56 39 87 30 87 -7 0 -17 -6 -23 -12z"/>
<path d="M3140 1483 c-73 -84 -162 -299 -145 -353 19 -58 90 14 159 161 24 52
50 119 56 151 22 100 -4 115 -70 41z"/>
<path d="M1824 1506 c-24 -62 133 -386 187 -386 40 0 12 118 -63 263 -58 111
-109 162 -124 123z"/>
</g>
</svg>
